<svg width="32" height="32" viewBox="0 0 32 32" fill="none" xmlns="http://www.w3.org/2000/svg">
<g clip-path="url(#clip0_341_588)">
<path fill-rule="evenodd" clip-rule="evenodd" d="M16.0002 0.666626C12.2018 0.668597 8.52801 2.0139 5.63566 4.46199C2.74331 6.91008 0.821042 10.3013 0.212563 14.0293C-0.395915 17.7573 0.349073 21.5789 2.31433 24.8109C4.27959 28.0428 7.33696 30.4743 10.9397 31.6706C11.7346 31.8181 12.034 31.3255 12.034 30.9066C12.034 30.4878 12.0181 29.2733 12.0128 27.9456C7.5617 28.9071 6.62115 26.0673 6.62115 26.0673C5.8952 24.2232 4.84602 23.7385 4.84602 23.7385C3.39412 22.7532 4.95466 22.7717 4.95466 22.7717C6.56287 22.8849 7.40804 24.4129 7.40804 24.4129C8.83345 26.8444 11.1517 26.141 12.0631 25.7301C12.2062 24.7 12.6221 23.9993 13.0805 23.6015C9.52494 23.2011 5.78922 21.8365 5.78922 15.7405C5.76718 14.1596 6.3572 12.6307 7.43718 11.4702C7.27292 11.0698 6.72447 9.45227 7.59349 7.2552C7.59349 7.2552 8.93677 6.82843 11.9942 8.88588C14.6167 8.17279 17.3837 8.17279 20.0062 8.88588C23.061 6.82843 24.4016 7.2552 24.4016 7.2552C25.2732 9.447 24.7248 11.0645 24.5605 11.4702C25.6439 12.6309 26.2352 14.1624 26.2111 15.7458C26.2111 21.8549 22.4675 23.2011 18.9066 23.5936C19.4789 24.0889 19.9903 25.0557 19.9903 26.5415C19.9903 28.67 19.9717 30.3824 19.9717 30.9066C19.9717 31.3308 20.2605 31.826 21.0712 31.6706C24.6744 30.4742 27.7321 28.0422 29.6973 24.8097C31.6625 21.5772 32.4071 17.755 31.798 14.0267C31.1888 10.2984 29.2656 6.9071 26.3723 4.45943C23.479 2.01177 19.8043 0.667348 16.0055 0.666626H16.0002Z" fill="black"/>
<path d="M6.05909 23.5093C6.02464 23.5884 5.89747 23.6121 5.79414 23.5568C5.69081 23.5014 5.61398 23.3987 5.65108 23.317C5.68817 23.2354 5.81269 23.2143 5.91602 23.2696C6.01935 23.3249 6.09883 23.4303 6.05909 23.5093Z" fill="black"/>
<path d="M6.70847 24.2285C6.6536 24.256 6.59083 24.2636 6.5309 24.2502C6.47096 24.2367 6.41761 24.203 6.37994 24.1547C6.27661 24.0441 6.2554 23.8913 6.33489 23.8228C6.41437 23.7543 6.55745 23.7859 6.66078 23.8965C6.76411 24.0072 6.78795 24.16 6.70847 24.2285Z" fill="black"/>
<path d="M7.33916 25.1427C7.24113 25.2112 7.0742 25.1427 6.98147 25.0057C6.95583 24.9811 6.93544 24.9517 6.92151 24.9191C6.90758 24.8865 6.90039 24.8515 6.90039 24.816C6.90039 24.7806 6.90758 24.7456 6.92151 24.713C6.93544 24.6804 6.95583 24.6509 6.98147 24.6264C7.0795 24.5605 7.24643 24.6264 7.33916 24.7607C7.43189 24.8951 7.43454 25.0742 7.33916 25.1427Z" fill="black"/>
<path d="M8.1945 26.0277C8.10706 26.1252 7.92955 26.0989 7.78383 25.9672C7.63812 25.8354 7.60366 25.6563 7.69109 25.5615C7.77853 25.4666 7.95604 25.493 8.10706 25.6221C8.25808 25.7511 8.28723 25.9329 8.1945 26.0277Z" fill="black"/>
<path d="M9.39506 26.5441C9.35532 26.668 9.17515 26.7233 8.99499 26.6706C8.81483 26.6179 8.69561 26.4704 8.73005 26.3439C8.76449 26.2175 8.94731 26.1595 9.13012 26.2175C9.31293 26.2754 9.4295 26.4151 9.39506 26.5441Z" fill="black"/>
<path d="M10.7038 26.6337C10.7038 26.7628 10.5554 26.8735 10.3647 26.8761C10.1739 26.8787 10.0176 26.7734 10.0176 26.6443C10.0176 26.5152 10.1659 26.4045 10.3567 26.4019C10.5475 26.3993 10.7038 26.502 10.7038 26.6337Z" fill="black"/>
<path d="M11.9224 26.4309C11.9462 26.56 11.8137 26.6943 11.623 26.7259C11.4322 26.7576 11.2653 26.6812 11.2415 26.5547C11.2176 26.4283 11.3554 26.2913 11.5408 26.257C11.7263 26.2228 11.8985 26.3018 11.9224 26.4309Z" fill="black"/>
</g>
<defs>
<clipPath id="clip0_341_588">
<rect width="32" height="32" fill="white"/>
</clipPath>
</defs>
</svg>
